# xmcd
#
# Track frame offsets:
#	150
#	17211
#	32060
#	49155
#	67921
#	82671
#	97638
#
# Disc length: 1463 seconds
#
# Revision: 1
# Processed by: cddbd v1.5.2PL0 Copyright (c) Steve Scherf et al.
# Submitted via: audiograbber 1.83.01
#
DISCID=4305b507
DTITLE=Various Artist - New Country - Vol. 33
DYEAR=2006
DGENRE=Country
TTITLE0=Louie Allen - Catch That Mystery Train
TTITLE1=Bruce Stephens - Country Lovin' Body
TTITLE2=Mollie Castle - Fells Like I'm Walking On A Cloud
TTITLE3=Don Faires - Sometimes I Still Miss You
TTITLE4=T.G. Sheppard - A December To Remember
TTITLE5=T.G. Sheppard - A Whole Lot More Like Christmas
TTITLE6=Barry Kaye - Randolph The Redneck Reindeer
EXTD=
EXTT0=
EXTT1=
EXTT2=
EXTT3=
EXTT4=
EXTT5=
EXTT6=
PLAYORDER=
